<svg width="27" height="27" viewBox="0 0 27 27" fill="none" xmlns="http://www.w3.org/2000/svg">
<g id="Group 4">
<rect id="Rectangle 43" width="27" height="27" rx="13.5" fill="#E6E6E6"/>
<path id="Union" fill-rule="evenodd" clip-rule="evenodd" d="M8.76154 12.95C8.76154 10.6368 10.6368 8.76154 12.95 8.76154C15.2632 8.76154 17.1385 10.6368 17.1385 12.95C17.1385 15.2632 15.2632 17.1385 12.95 17.1385C10.6368 17.1385 8.76154 15.2632 8.76154 12.95ZM12.95 8C10.2162 8 8 10.2162 8 12.95C8 15.6838 10.2162 17.9 12.95 17.9C14.1913 17.9 15.3259 17.4431 16.1948 16.6883L18.4042 18.8977C18.5406 19.0341 18.7617 19.0341 18.8981 18.8977C19.0344 18.7613 19.0344 18.5402 18.8981 18.4039L16.6886 16.1944C17.4432 15.3256 17.9 14.1911 17.9 12.95C17.9 10.2162 15.6838 8 12.95 8Z" fill="black"/>
</g>
</svg>
